<?xml version="1.0" standalone="no"?><!DOCTYPE svg PUBLIC "-//W3C//DTD SVG 1.1//EN" "http://www.w3.org/Graphics/SVG/1.1/DTD/svg11.dtd"><svg class="icon" width="64px" height="64.00px" viewBox="0 0 1024 1024" version="1.1" xmlns="http://www.w3.org/2000/svg"><path d="M933.7344 342.6304a86.6304 86.6304 0 0 0-99.9424 86.1696v162.4064a28.8768 28.8768 0 0 1-28.7744 28.7744H218.7776a28.8768 28.8768 0 0 1-28.8256-28.7744V433.2032v-4.4032-4.4544a87.04 87.04 0 0 0-87.04-82.7392 90.2144 90.2144 0 0 0-12.9536 1.0752 87.04 87.04 0 0 0 0 172.1856v177.8176a28.8768 28.8768 0 0 0 28.8256 28.7744h786.1248a28.928 28.928 0 0 0 28.8256-28.7744v-177.7664a87.04 87.04 0 0 0 0-172.288z" fill="#FFFFFF" /><path d="M904.9088 729.1392H118.8864a36.5056 36.5056 0 0 1-36.5056-36.4544v-171.4176a94.72 94.72 0 0 1 6.5536-186.1632 89.856 89.856 0 0 1 14.08-1.1776A94.72 94.72 0 0 1 197.632 423.9872v167.2192a21.1456 21.1456 0 0 0 21.1456 21.0944h586.24a21.1456 21.1456 0 0 0 21.0944-21.0944V428.8a95.0272 95.0272 0 0 1 94.8736-94.8736 92.7232 92.7232 0 0 1 13.824 1.1264 94.72 94.72 0 0 1 6.6048 186.2656v171.3664a36.5056 36.5056 0 0 1-36.5056 36.4544zM103.0144 349.2864a79.4624 79.4624 0 0 0-11.8272 158.0032 7.68 7.68 0 0 1 6.5536 7.5776v177.8176a21.1456 21.1456 0 0 0 21.1456 21.0944h786.0224a21.1456 21.1456 0 0 0 21.1456-21.0944v-177.7664a7.68 7.68 0 0 1 6.5536-7.6288 79.36 79.36 0 0 0 0-157.0304 77.6704 77.6704 0 0 0-11.6224-0.9728 79.6672 79.6672 0 0 0-79.5136 79.4624v162.4576a36.4544 36.4544 0 0 1-36.4544 36.4544H218.7776a36.5056 36.5056 0 0 1-36.5056-36.4544V431.1552v-2.3552-4.0448a79.36 79.36 0 0 0-79.2576-75.4688z" fill="#A48B78" /><path d="M90.0608 514.8672a83.456 83.456 0 0 0 12.9536 1.0752A86.6816 86.6816 0 0 0 150.4256 501.76" fill="#FFFFFF" /><path d="M103.0144 523.6224a95.4368 95.4368 0 0 1-14.08-1.1264 7.68 7.68 0 0 1 2.2528-15.36 77.824 77.824 0 0 0 55.04-11.8272 7.68 7.68 0 0 1 8.3968 12.9024 94.4128 94.4128 0 0 1-51.6096 15.4112z" fill="#A48B78" /><path d="M872.2432 501.0432a85.6576 85.6576 0 0 0 61.44 13.8752" fill="#FFFFFF" /><path d="M920.9856 523.6224a94.3616 94.3616 0 0 1-53.0432-16.1792 7.68 7.68 0 0 1 8.6016-12.7488 79.3088 79.3088 0 0 0 44.4416 13.568 76.8 76.8 0 0 0 11.6224-0.9728 7.68 7.68 0 1 1 2.2016 15.36 91.648 91.648 0 0 1-13.824 0.9728z" fill="#A48B78" /><path d="M920.9856 428.8m-37.5808 0a37.5808 37.5808 0 1 0 75.1616 0 37.5808 37.5808 0 1 0-75.1616 0Z" fill="#FFFFFF" /><path d="M920.9856 474.0096a45.2608 45.2608 0 1 1 45.2608-45.2608 45.312 45.312 0 0 1-45.2608 45.2608z m0-75.1104a29.9008 29.9008 0 1 0 29.9008 29.8496 29.9008 29.9008 0 0 0-29.9008-29.8496z" fill="#A48B78" /><path d="M923.5968 391.3216a37.5808 37.5808 0 0 1-22.8352 67.3792h-2.6112a37.5808 37.5808 0 1 0 25.6-67.2768z" fill="#F7F2EB" /><path d="M920.9856 474.0096a45.2608 45.2608 0 1 1 45.2608-45.2608 45.312 45.312 0 0 1-45.2608 45.2608z m0-75.1104a29.9008 29.9008 0 1 0 29.9008 29.8496 29.9008 29.9008 0 0 0-29.9008-29.8496z" fill="#A48B78" /><path d="M759.3984 226.304H264.0896A131.584 131.584 0 0 0 133.12 347.136a87.04 87.04 0 0 1 56.832 77.2096v116.3776a149.248 149.248 0 0 1 82.4832-24.8832h157.0816A149.3504 149.3504 0 0 1 512 540.672a149.0432 149.0432 0 0 1 82.432-24.8832h157.0816a149.1456 149.1456 0 0 1 81.92 24.6272v-111.616a87.04 87.04 0 0 1 56.8832-81.92 131.6864 131.6864 0 0 0-130.9184-120.576z" fill="#FFFFFF" /><path d="M189.952 548.5056a7.68 7.68 0 0 1-7.68-7.68V431.1552v-2.3552-4.0448A79.4112 79.4112 0 0 0 130.6112 354.304a7.6288 7.6288 0 0 1-5.12-7.7824 139.5712 139.5712 0 0 1 138.24-128h495.3088a139.5712 139.5712 0 0 1 138.24 128 7.68 7.68 0 0 1-5.12 7.8336 79.7184 79.7184 0 0 0-51.8656 74.3936v111.8208a7.7312 7.7312 0 0 1-4.0448 6.7584 7.6288 7.6288 0 0 1-7.8848-0.3584 141.568 141.568 0 0 0-77.824-23.3472h-156.3648a141.3632 141.3632 0 0 0-78.2336 23.6032 7.5776 7.5776 0 0 1-7.8336 0.3584 6.3488 6.3488 0 0 1-1.6384-1.1776 141.6192 141.6192 0 0 0-76.8-22.784H272.4352a141.2096 141.2096 0 0 0-78.2336 23.6032 7.5264 7.5264 0 0 1-4.2496 1.28z m82.4832-40.2432h157.0816a156.672 156.672 0 0 1 82.4832 23.3984 156.5696 156.5696 0 0 1 82.3296-23.3984h157.0816a156.416 156.416 0 0 1 74.3936 18.7904V428.8a95.1296 95.1296 0 0 1 56.32-86.5792 124.2624 124.2624 0 0 0-122.7264-108.2368H264.0896a124.2624 124.2624 0 0 0-122.5728 108.1856 94.72 94.72 0 0 1 56.32 81.92V527.36a156.7232 156.7232 0 0 1 74.5984-19.0976z" fill="#A48B78" /><path d="M759.3984 226.304h-96.6656a116.3264 116.3264 0 0 1 116.0192 115.968v176.2304a150.3232 150.3232 0 0 1 54.5792 22.0672V428.8a87.04 87.04 0 0 1 56.8832-81.92 131.6864 131.6864 0 0 0-130.816-120.576z" fill="#F7F2EB" /><path d="M189.952 548.5056a7.68 7.68 0 0 1-7.68-7.68V431.1552v-2.3552-4.0448A79.4112 79.4112 0 0 0 130.6112 354.304a7.6288 7.6288 0 0 1-5.12-7.7824 139.5712 139.5712 0 0 1 138.24-128h495.3088a139.5712 139.5712 0 0 1 138.24 128 7.68 7.68 0 0 1-5.12 7.8336 79.7184 79.7184 0 0 0-51.8656 74.3936v111.8208a7.7312 7.7312 0 0 1-4.0448 6.7584 7.6288 7.6288 0 0 1-7.8848-0.3584 141.568 141.568 0 0 0-77.824-23.3472h-156.3648a141.3632 141.3632 0 0 0-78.2336 23.6032 7.5776 7.5776 0 0 1-7.8336 0.3584 6.3488 6.3488 0 0 1-1.6384-1.1776 141.6192 141.6192 0 0 0-76.8-22.784H272.4352a141.2096 141.2096 0 0 0-78.2336 23.6032 7.5264 7.5264 0 0 1-4.2496 1.28z m82.4832-40.2432h157.0816a156.672 156.672 0 0 1 82.4832 23.3984 156.5696 156.5696 0 0 1 82.3296-23.3984h157.0816a156.416 156.416 0 0 1 74.3936 18.7904V428.8a95.1296 95.1296 0 0 1 56.32-86.5792 124.2624 124.2624 0 0 0-122.7264-108.2368H264.0896a124.2624 124.2624 0 0 0-122.5728 108.1856 94.72 94.72 0 0 1 56.32 81.92V527.36a156.7232 156.7232 0 0 1 74.5984-19.0976z" fill="#A48B78" /><path d="M218.7776 619.9808H512V540.672a149.3504 149.3504 0 0 0-82.2272-24.7296H272.4352a149.248 149.248 0 0 0-82.4832 24.8832v50.3808a28.8768 28.8768 0 0 0 28.8256 28.7744z" fill="#FFFFFF" /><path d="M512 627.6608H218.7776a36.5056 36.5056 0 0 1-36.5056-36.4544v-50.3808a7.68 7.68 0 0 1 3.4304-6.4 156.8256 156.8256 0 0 1 86.7328-26.1632h157.0816a156.7744 156.7744 0 0 1 86.4256 26.0096 7.7312 7.7312 0 0 1 3.4816 6.4v79.3088a7.68 7.68 0 0 1-7.424 7.68z m-314.368-82.6368v46.08a21.1456 21.1456 0 0 0 21.1456 21.0944h285.2864v-67.328a141.3632 141.3632 0 0 0-74.5472-21.248H272.4352a141.2096 141.2096 0 0 0-74.8032 21.4016z" fill="#A48B78" /><path d="M512 619.9808h292.9664a28.8768 28.8768 0 0 0 28.7744-28.7744v-50.5344a149.1968 149.1968 0 0 0-82.2272-24.7296h-157.3376a149.0432 149.0432 0 0 0-82.432 24.8832z" fill="#FFFFFF" /><path d="M804.7104 627.6608H512a7.68 7.68 0 0 1-7.68-7.68v-79.1552a7.68 7.68 0 0 1 3.4304-6.4 156.672 156.672 0 0 1 86.6816-26.1632h157.0816a156.8256 156.8256 0 0 1 86.4768 26.0096 7.68 7.68 0 0 1 3.4304 6.4v50.5344a36.5056 36.5056 0 0 1-36.7104 36.4544z m-285.2864-15.36h285.2864a21.1456 21.1456 0 0 0 21.0944-21.0944v-46.08a141.2096 141.2096 0 0 0-74.5472-21.248h-157.0816a141.056 141.056 0 0 0-74.752 21.4016z" fill="#A48B78" /><path d="M102.912 428.8m-37.5808 0a37.5808 37.5808 0 1 0 75.1616 0 37.5808 37.5808 0 1 0-75.1616 0Z" fill="#FFFFFF" /><path d="M102.912 474.0096a45.2608 45.2608 0 1 1 45.2608-45.2608 45.312 45.312 0 0 1-45.2608 45.2608z m0-75.1104a29.9008 29.9008 0 1 0 29.9008 29.8496 29.9008 29.9008 0 0 0-29.9008-29.8496z" fill="#A48B78" /><path d="M105.5232 391.3216a37.5808 37.5808 0 0 1-22.8352 67.3792h-2.6112a37.5808 37.5808 0 1 0 25.6-67.2768z" fill="#F7F2EB" /><path d="M102.912 474.0096a45.2608 45.2608 0 1 1 45.2608-45.2608 45.312 45.312 0 0 1-45.2608 45.2608z m0-75.1104a29.9008 29.9008 0 1 0 29.9008 29.8496 29.9008 29.9008 0 0 0-29.9008-29.8496z" fill="#A48B78" /><path d="M443.4944 516.608a34.048 34.048 0 0 1 27.1872 33.2288v36.2496a33.9968 33.9968 0 0 1-33.9456 33.8944H512V540.672a149.6576 149.6576 0 0 0-68.5056-24.064zM764.8768 516.608a34.048 34.048 0 0 1 27.1872 33.2288v36.2496a33.9968 33.9968 0 0 1-33.9456 33.8944H803.84a29.3888 29.3888 0 0 0 29.44-29.3888v-49.92a149.6576 149.6576 0 0 0-68.4032-24.064z" fill="#F7F2EB" /><path d="M804.7104 627.6608H512a7.68 7.68 0 0 1-7.68-7.68v-79.1552a7.68 7.68 0 0 1 3.4304-6.4 156.672 156.672 0 0 1 86.6816-26.1632h157.0816a156.8256 156.8256 0 0 1 86.4768 26.0096 7.68 7.68 0 0 1 3.4304 6.4v50.5344a36.5056 36.5056 0 0 1-36.7104 36.4544z m-285.2864-15.36h285.2864a21.1456 21.1456 0 0 0 21.0944-21.0944v-46.08a141.2096 141.2096 0 0 0-74.5472-21.248h-157.0816a141.056 141.056 0 0 0-74.752 21.4016z" fill="#A48B78" /><path d="M512 627.6608H218.7776a36.5056 36.5056 0 0 1-36.5056-36.4544v-50.3808a7.68 7.68 0 0 1 3.4304-6.4 156.8256 156.8256 0 0 1 86.7328-26.1632h157.0816a156.7744 156.7744 0 0 1 86.4256 26.0096 7.7312 7.7312 0 0 1 3.4816 6.4v79.3088a7.68 7.68 0 0 1-7.424 7.68z m-314.368-82.6368v46.08a21.1456 21.1456 0 0 0 21.1456 21.0944h285.2864v-67.328a141.3632 141.3632 0 0 0-74.5472-21.248H272.4352a141.2096 141.2096 0 0 0-74.8032 21.4016z" fill="#A48B78" /><path d="M495.5648 316.3648l31.1808 31.1808" fill="#FFFFFF" /><path d="M526.7456 355.2256a7.5264 7.5264 0 0 1-5.4272-2.2528l-31.1808-31.1808a7.68 7.68 0 1 1 10.8544-10.8544l31.1808 31.1808a7.6288 7.6288 0 0 1 0 10.8544 7.5264 7.5264 0 0 1-5.4272 2.2528z" fill="#A48B78" /><path d="M526.7456 316.3648l-31.1808 31.1808" fill="#FFFFFF" /><path d="M495.5648 355.2256a7.424 7.424 0 0 1-5.4272-2.2528 7.6288 7.6288 0 0 1 0-10.8544l31.1808-31.1808a7.68 7.68 0 0 1 10.8544 10.8544l-31.1808 31.1808a7.5776 7.5776 0 0 1-5.4272 2.2528z" fill="#A48B78" /><path d="M495.5648 428.8l31.1808 31.1808" fill="#FFFFFF" /><path d="M526.7456 467.6608a7.7312 7.7312 0 0 1-5.4272-2.2528l-31.1808-31.1808a7.68 7.68 0 1 1 10.8544-10.9056l31.1808 31.232a7.6288 7.6288 0 0 1 0 10.8544 7.7312 7.7312 0 0 1-5.4272 2.2528z" fill="#A48B78" /><path d="M526.7456 428.8l-31.1808 31.1808" fill="#FFFFFF" /><path d="M495.5648 467.6608a7.68 7.68 0 0 1-5.4272-13.1072l31.1808-31.232a7.68 7.68 0 1 1 10.8544 10.9056l-31.1808 31.1808a7.8336 7.8336 0 0 1-5.4272 2.2528z" fill="#A48B78" /><path d="M329.3184 316.3648l31.232 31.1808" fill="#FFFFFF" /><path d="M360.5504 355.2256a7.424 7.424 0 0 1-5.4272-2.2528l-31.232-31.1808a7.7312 7.7312 0 0 1 0-10.8544 7.6288 7.6288 0 0 1 10.8544 0l31.232 31.1808a7.7312 7.7312 0 0 1 0 10.8544 7.5776 7.5776 0 0 1-5.4272 2.2528z" fill="#A48B78" /><path d="M360.5504 316.3648l-31.232 31.1808" fill="#FFFFFF" /><path d="M329.3184 355.2256a7.5776 7.5776 0 0 1-5.4272-2.2528 7.7312 7.7312 0 0 1 0-10.8544l31.232-31.1808a7.6288 7.6288 0 0 1 10.8544 0 7.7312 7.7312 0 0 1 0 10.8544l-31.232 31.1808a7.424 7.424 0 0 1-5.4272 2.2528z" fill="#A48B78" /><path d="M329.3184 428.8l31.232 31.1808" fill="#FFFFFF" /><path d="M360.5504 467.6608a7.6288 7.6288 0 0 1-5.4272-2.2528l-31.232-31.1808a7.68 7.68 0 1 1 10.8544-10.9056l31.232 31.232a7.7312 7.7312 0 0 1 0 10.8544 7.8336 7.8336 0 0 1-5.4272 2.2528z" fill="#A48B78" /><path d="M360.5504 428.8l-31.232 31.1808" fill="#FFFFFF" /><path d="M329.3184 467.6608a7.8336 7.8336 0 0 1-5.4272-2.2528 7.7312 7.7312 0 0 1 0-10.8544l31.232-31.232a7.68 7.68 0 1 1 10.8544 10.9056l-31.232 31.1808a7.6288 7.6288 0 0 1-5.4272 2.2528z" fill="#A48B78" /><path d="M661.76 316.3648l31.1808 31.1808" fill="#FFFFFF" /><path d="M692.9408 355.2256a7.5264 7.5264 0 0 1-5.4272-2.2528l-31.1808-31.1808a7.68 7.68 0 0 1 10.8544-10.8544l31.1808 31.1808a7.6288 7.6288 0 0 1 0 10.8544 7.424 7.424 0 0 1-5.4272 2.2528z" fill="#A48B78" /><path d="M692.9408 316.3648l-31.1808 31.1808" fill="#FFFFFF" /><path d="M661.76 355.2256a7.5264 7.5264 0 0 1-5.4272-2.2528 7.6288 7.6288 0 0 1 0-10.8544l31.1808-31.1808a7.68 7.68 0 0 1 10.8544 10.8544l-31.1808 31.1808a7.5264 7.5264 0 0 1-5.4272 2.2528z" fill="#A48B78" /><path d="M661.76 428.8l31.1808 31.1808" fill="#FFFFFF" /><path d="M692.9408 467.6608a7.7312 7.7312 0 0 1-5.4272-2.2528l-31.1808-31.1808a7.68 7.68 0 0 1 10.8544-10.9056l31.1808 31.232a7.68 7.68 0 0 1-5.4272 13.1072z" fill="#A48B78" /><path d="M692.9408 428.8l-31.1808 31.1808" fill="#FFFFFF" /><path d="M661.76 467.6608a7.7312 7.7312 0 0 1-5.4272-2.2528 7.6288 7.6288 0 0 1 0-10.8544l31.1808-31.232a7.68 7.68 0 1 1 10.8544 10.9056l-31.1808 31.1808a7.7312 7.7312 0 0 1-5.4272 2.2528z" fill="#A48B78" /><path d="M189.7984 721.4592H117.76a18.8416 18.8416 0 0 0 15.9232 18.5856l13.2096 1.9968a14.1312 14.1312 0 0 1 11.9808 13.9776 14.08 14.08 0 0 1-12.5952 14.0288l-9.6768 1.0752a14.08 14.08 0 0 0-12.5952 14.0288v12.544h37.4272l9.1136-10.24a79.36 79.36 0 0 0 19.0464-65.9968z" fill="#FFFFFF" /><path d="M161.6384 805.376h-37.4272a7.68 7.68 0 0 1-7.68-7.68v-12.544a21.7088 21.7088 0 0 1 19.456-21.6576l9.6768-1.0752a6.4512 6.4512 0 0 0 5.7856-6.4 6.3488 6.3488 0 0 0-5.4784-6.3488l-13.2608-2.048a26.3168 26.3168 0 0 1-22.4256-26.1632 7.68 7.68 0 0 1 7.68-7.68h71.68a7.68 7.68 0 0 1 7.5776 6.4512 86.6304 86.6304 0 0 1-20.8896 72.3456l-9.1136 10.24a7.68 7.68 0 0 1-5.5808 2.56z m-29.7472-15.36h26.3168l6.8096-7.68a71.2192 71.2192 0 0 0 17.9712-53.1968h-54.272a11.1104 11.1104 0 0 0 6.3488 3.328l13.2096 1.9968a21.8112 21.8112 0 0 1-0.9216 43.264l-9.728 1.024a6.4512 6.4512 0 0 0-5.7344 6.4z" fill="#A48B78" /><path d="M834.2016 721.4592h71.68a18.8416 18.8416 0 0 1-15.9232 18.5856l-13.2096 1.9968a14.1312 14.1312 0 0 0-11.9808 13.9776 14.08 14.08 0 0 0 12.5952 14.0288l9.6768 1.0752a14.08 14.08 0 0 1 12.5952 14.0288v12.544h-37.4272l-9.1136-10.24a79.36 79.36 0 0 1-19.0464-65.9968z" fill="#FFFFFF" /><path d="M899.7888 805.376h-37.4272a7.68 7.68 0 0 1-5.7344-2.56l-9.1136-10.24a86.6816 86.6816 0 0 1-20.8896-72.3968 7.68 7.68 0 0 1 7.5776-6.4h71.68a7.68 7.68 0 0 1 7.68 7.68 26.3168 26.3168 0 0 1-22.4256 26.1632l-13.2608 2.048a6.4 6.4 0 0 0 0.3072 12.7488l9.6768 1.0752a21.7088 21.7088 0 0 1 19.456 21.6576v12.544a7.68 7.68 0 0 1-7.5264 7.68z m-33.9968-15.36h26.3168v-5.12a6.4512 6.4512 0 0 0-5.7344-6.4l-9.6768-1.024a21.8112 21.8112 0 0 1-0.9728-43.264l13.2096-1.9968a11.1104 11.1104 0 0 0 6.3488-3.328h-54.272a71.2192 71.2192 0 0 0 17.9712 53.1968z" fill="#A48B78" /></svg>